<svg width="16" height="16" viewBox="0 0 16 16" fill="none" xmlns="http://www.w3.org/2000/svg">
<path d="M2.66666 14.6667C2.66666 13.2523 3.22857 11.8957 4.22876 10.8955C5.22896 9.89532 6.58551 9.33342 8 9.33342C9.41448 9.33342 10.771 9.89532 11.7712 10.8955C12.7714 11.8957 13.3333 13.2523 13.3333 14.6667H12C12 13.6059 11.5786 12.5885 10.8284 11.8383C10.0783 11.0882 9.06086 10.6667 8 10.6667C6.93913 10.6667 5.92172 11.0882 5.17157 11.8383C4.42142 12.5885 4 13.6059 4 14.6667H2.66666ZM8 8.66675C5.79 8.66675 4 6.87675 4 4.66675C4 2.45675 5.79 0.666748 8 0.666748C10.21 0.666748 12 2.45675 12 4.66675C12 6.87675 10.21 8.66675 8 8.66675ZM8 7.33342C9.47333 7.33342 10.6667 6.14008 10.6667 4.66675C10.6667 3.19341 9.47333 2.00008 8 2.00008C6.52666 2.00008 5.33333 3.19341 5.33333 4.66675C5.33333 6.14008 6.52666 7.33342 8 7.33342Z" fill="#878787"/>
</svg>
