<svg width="16" height="16" viewBox="0 0 16 16" fill="none" xmlns="http://www.w3.org/2000/svg">
<path d="M11.3333 2.66659H14C14.1768 2.66659 14.3464 2.73682 14.4714 2.86185C14.5964 2.98687 14.6667 3.15644 14.6667 3.33325V13.9999C14.6667 14.1767 14.5964 14.3463 14.4714 14.4713C14.3464 14.5963 14.1768 14.6666 14 14.6666H2C1.82319 14.6666 1.65362 14.5963 1.52859 14.4713C1.40357 14.3463 1.33333 14.1767 1.33333 13.9999V3.33325C1.33333 3.15644 1.40357 2.98687 1.52859 2.86185C1.65362 2.73682 1.82319 2.66659 2 2.66659H4.66667V1.33325H6V2.66659H10V1.33325H11.3333V2.66659ZM13.3333 7.99992H2.66667V13.3333H13.3333V7.99992ZM10 3.99992H6V5.33325H4.66667V3.99992H2.66667V6.66659H13.3333V3.99992H11.3333V5.33325H10V3.99992ZM4 9.33325H5.33333V10.6666H4V9.33325ZM7.33333 9.33325H8.66667V10.6666H7.33333V9.33325ZM10.6667 9.33325H12V10.6666H10.6667V9.33325Z" fill="#878787"/>
</svg>
